<svg xmlns="http://www.w3.org/2000/svg" viewBox="-3.78 -15.78 71.57 71.57" role="img">
<title>Formula Foundry icon (reversed)</title>
<polygon points="60.98,14.47 67.78,16.05 67.78,23.95 60.98,25.53 59.86,29.7 64.96,34.47 61.01,41.31 54.33,39.28 51.28,42.33 53.31,49.01 46.47,52.96 41.7,47.86 37.53,48.98 35.95,55.78 28.05,55.78 26.47,48.98 22.3,47.86 17.53,52.96 10.69,49.01 12.72,42.33 9.67,39.28 2.99,41.31 -0.96,34.47 4.14,29.7 3.02,25.53 -3.78,23.95 -3.78,16.05 3.02,14.47 4.14,10.3 -0.96,5.53 2.99,-1.31 9.67,0.72 12.72,-2.33 10.69,-9.01 17.53,-12.96 22.3,-7.86 26.47,-8.98 28.05,-15.78 35.95,-15.78 37.53,-8.98 41.7,-7.86 46.47,-12.96 53.31,-9.01 51.28,-2.33 54.33,0.72 61.01,-1.31 64.96,5.53 59.86,10.3" fill="#FAF7F2" fill-opacity="0.05" stroke="#FAF7F2" stroke-width="2.5" stroke-opacity="0.28" stroke-linejoin="round"/>
<polygon points="48,20 47.86,22.09 47.45,24.14 46.78,26.12 45.86,28 44.69,29.74 43.31,31.31 41.74,32.69 40,33.86 38.12,34.78 36.14,35.45 34.09,35.86 32,36 29.91,35.86 27.86,35.45 25.88,34.78 24,33.86 22.26,32.69 20.69,31.31 19.31,29.74 18.14,28 17.22,26.12 16.55,24.14 16.14,22.09 16,20 16.14,17.91 16.55,15.86 17.22,13.88 18.14,12 19.31,10.26 20.69,8.69 22.26,7.31 24,6.14 25.88,5.22 27.86,4.55 29.91,4.14 32,4 34.09,4.14 36.14,4.55 38.12,5.22 40,6.14 41.74,7.31 43.31,8.69 44.69,10.26 45.86,12 46.78,13.88 47.45,15.86 47.86,17.91" fill="none" stroke="#FAF7F2" stroke-width="2" stroke-opacity="0.28" stroke-linejoin="round"/>
<g fill="#FAF7F2">
<rect x="20" y="0" width="8" height="40"/>
<rect x="0" y="0" width="28" height="8"/>
<rect x="36" y="0" width="8" height="40"/>
<rect x="36" y="0" width="28" height="8"/>
</g>
<g fill="#C05621">
<rect x="6" y="16" width="22" height="8"/>
<rect x="36" y="16" width="22" height="8"/>
</g>
</svg>
